<?xml version="1.0" encoding="utf-8"?>
<!-- Generator: Adobe Illustrator 27.0.0, SVG Export Plug-In . SVG Version: 6.00 Build 0)  -->
<svg version="1.1" id="Capa_1" xmlns="http://www.w3.org/2000/svg" xmlns:xlink="http://www.w3.org/1999/xlink" x="0px" y="0px"
	 viewBox="0 0 50 50" style="enable-background:new 0 0 50 50;" xml:space="preserve">
<style type="text/css">
	.st0{fill:#020203;}
	.st1{fill:#FFFFFF;}
</style>
<g>
	<g>
		<circle class="st0" cx="25" cy="25" r="22.18"/>
		<g>
			<path class="st1" d="M31.11,17.58c-0.75,0-1.35,0.61-1.35,1.35c0,0.75,0.61,1.35,1.35,1.35c0.75,0,1.35-0.61,1.35-1.35
				C32.47,18.18,31.86,17.58,31.11,17.58z"/>
			<path class="st1" d="M25.09,19.31c-3.14,0-5.69,2.55-5.69,5.69c0,3.14,2.55,5.69,5.69,5.69c3.14,0,5.69-2.55,5.69-5.69
				C30.78,21.86,28.23,19.31,25.09,19.31z M25.09,28.64c-2.01,0-3.64-1.63-3.64-3.64s1.63-3.64,3.64-3.64
				c2.01,0,3.64,1.63,3.64,3.64S27.1,28.64,25.09,28.64z"/>
			<path class="st1" d="M29.61,36.54h-9.22c-3.82,0-6.94-3.11-6.94-6.94v-9.22c0-3.82,3.11-6.94,6.94-6.94h9.22
				c3.82,0,6.94,3.11,6.94,6.94v9.22C36.54,33.43,33.43,36.54,29.61,36.54z M20.39,15.63c-2.63,0-4.76,2.14-4.76,4.76v9.22
				c0,2.63,2.14,4.76,4.76,4.76h9.22c2.63,0,4.76-2.14,4.76-4.76v-9.22c0-2.63-2.14-4.76-4.76-4.76H20.39z"/>
		</g>
	</g>
</g>
</svg>
