<?xml version="1.0" encoding="utf-8"?>
<!-- Generator: Adobe Illustrator 27.0.0, SVG Export Plug-In . SVG Version: 6.00 Build 0)  -->
<svg version="1.1" id="Capa_1" xmlns="http://www.w3.org/2000/svg" xmlns:xlink="http://www.w3.org/1999/xlink" x="0px" y="0px"
	 viewBox="0 0 348.76 496.66" style="enable-background:new 0 0 348.76 496.66;" xml:space="preserve">
<path d="M169.38,441.05c19.97,0,61.75-0.31,67.9-2.46c6.14-2.15,7.37-21.51,13.21-78.65c5.84-57.14,11.67-166.83,11.37-183.42
	s-6.45-21.51-18.43-28.57c-11.98-7.07-43.01-14.13-43.01-14.13s0-21.2,0-26.11s-1.54-6.76-3.69-7.37s-10.75-2.15-10.75-2.15V76.06
	h4.92v-8.3c-10.45-6.14-21.51-6.14-21.51-6.14s-11.06,0-21.51,6.14v8.3h4.92v22.12c0,0-8.6,1.54-10.75,2.15s-3.69,2.46-3.69,7.37
	s0,26.11,0,26.11s-31.03,7.07-43.01,14.13c-11.98,7.07-18.13,11.98-18.43,28.57s5.53,126.27,11.37,183.42
	c5.84,57.14,7.07,76.5,13.21,78.65C107.63,440.74,149.41,441.05,169.38,441.05z"/>
</svg>
