<?xml version="1.0" encoding="utf-8"?>
<!-- Generator: Adobe Illustrator 27.0.0, SVG Export Plug-In . SVG Version: 6.00 Build 0)  -->
<svg version="1.1" id="Capa_1" xmlns="http://www.w3.org/2000/svg" xmlns:xlink="http://www.w3.org/1999/xlink" x="0px" y="0px"
	 viewBox="0 0 348.76 496.66" style="enable-background:new 0 0 348.76 496.66;" xml:space="preserve">
<style type="text/css">
	.st0{fill:#FFFFFF;}
</style>
<path class="st0" d="M174.59,441.05c19.97,0,61.75-0.31,67.9-2.46c6.14-2.15,7.37-21.51,13.21-78.65
	c5.84-57.14,11.67-166.83,11.37-183.42s-6.45-21.51-18.43-28.57c-11.98-7.07-43.01-14.13-43.01-14.13s0-21.2,0-26.11
	s-1.54-6.76-3.69-7.37c-2.15-0.61-10.75-2.15-10.75-2.15V76.06h4.92v-8.3c-10.45-6.14-21.51-6.14-21.51-6.14s-11.06,0-21.51,6.14
	v8.3H158v22.12c0,0-8.6,1.54-10.75,2.15s-3.69,2.46-3.69,7.37s0,26.11,0,26.11s-31.03,7.07-43.01,14.13
	c-11.98,7.07-18.13,11.98-18.43,28.57s5.53,126.27,11.37,183.42c5.84,57.14,7.07,76.5,13.21,78.65
	C112.84,440.74,154.62,441.05,174.59,441.05z"/>
</svg>
