<?xml version="1.0" encoding="utf-8"?>
<!-- Generator: Adobe Illustrator 27.0.0, SVG Export Plug-In . SVG Version: 6.00 Build 0)  -->
<svg version="1.1" id="Capa_1" xmlns="http://www.w3.org/2000/svg" xmlns:xlink="http://www.w3.org/1999/xlink" x="0px" y="0px"
	 viewBox="0 0 348.76 496.66" style="enable-background:new 0 0 348.76 496.66;" xml:space="preserve">
<style type="text/css">
	.st0{fill:#FFFFFF;}
</style>
<path class="st0" d="M166.63,26.62c0,0-53.02,0.96-59.98,2.16c0,0-0.48,2.92,0,5.54c0.48,2.62,3.12,22.77,3.84,40.05
	c0.72,17.27-0.24,27.11-1.44,40.55c-1.2,13.44-14.04,111.68-13.13,194.22s5.96,143.54,6.88,151.8c0.92,8.25,1.83,11.92,10.09,12.38
	s24.93,2.75,53.74,2.75s45.48-2.29,53.74-2.75s9.17-4.13,10.09-12.38c0.92-8.25,5.96-69.25,6.88-151.8
	c0.92-82.55-11.93-180.79-13.13-194.22s-2.16-23.27-1.44-40.55c0.72-17.27,3.36-37.43,3.84-40.05c0.48-2.62,0-5.54,0-5.54
	C219.65,27.58,166.63,26.62,166.63,26.62z"/>
</svg>
