<?xml version="1.0" encoding="utf-8"?>
<!-- Generator: Adobe Illustrator 27.0.0, SVG Export Plug-In . SVG Version: 6.00 Build 0)  -->
<svg version="1.1" id="Capa_1" xmlns="http://www.w3.org/2000/svg" xmlns:xlink="http://www.w3.org/1999/xlink" x="0px" y="0px"
	 viewBox="0 0 348.76 496.66" style="enable-background:new 0 0 348.76 496.66;" xml:space="preserve">
<style type="text/css">
	.st0{fill:#FFFFFF;}
</style>
<path class="st0" d="M178.67,436.62c15.04,0,70.55-2.02,81.96-4.54s14.01-8.58,21.79-27.77c7.78-19.18,32.16-94.41,40.46-128.23
	s5.19-94.91,1.04-109.05c-4.15-14.14-27.49-34.33-33.2-38.87c-5.71-4.54-3.11-8.58-3.11-8.58s0-29.28,0-38.87
	s-12.45-14.64-25.42-14.64s-57.58,0-84.55,0s-71.58,0-84.55,0S67.67,71.11,67.67,80.7s0,38.87,0,38.87s2.59,4.04-3.11,8.58
	c-5.71,4.54-29.05,24.74-33.2,38.87c-4.15,14.14-7.26,75.22,1.04,109.05s32.68,109.05,40.46,128.23
	c7.78,19.18,10.37,25.24,21.79,27.77s66.91,4.54,81.96,4.54H178.67z"/>
</svg>
