<?xml version="1.0" encoding="utf-8"?>
<!-- Generator: Adobe Illustrator 27.0.0, SVG Export Plug-In . SVG Version: 6.00 Build 0)  -->
<svg version="1.1" id="Capa_1" xmlns="http://www.w3.org/2000/svg" xmlns:xlink="http://www.w3.org/1999/xlink" x="0px" y="0px"
	 viewBox="0 0 50 50" style="enable-background:new 0 0 50 50;" xml:space="preserve">
<style type="text/css">
	.st0{fill:#020203;}
	.st1{fill:#FFFFFF;}
</style>
<g>
	<g>
		<circle class="st0" cx="25" cy="25" r="22.18"/>
		<path class="st1" d="M35.77,22.19c0-2.61-2.12-4.73-4.73-4.73H18.95c-2.61,0-4.73,2.12-4.73,4.73v5.63c0,2.61,2.12,4.73,4.73,4.73
			h12.09c2.61,0,4.73-2.12,4.73-4.73V22.19z M28.66,25.42l-5.42,2.68c-0.21,0.12-0.93-0.04-0.93-0.28v-5.51
			c0-0.24,0.73-0.4,0.94-0.28l5.19,2.82C28.66,24.99,28.88,25.3,28.66,25.42z"/>
	</g>
</g>
</svg>
